<svg width="375" height="375" viewBox="0 0 375 375" fill="none" xmlns="http://www.w3.org/2000/svg">
<g id="avatar-svg-update">
<path id="Vector" d="M236.991 311.98C236.991 326.58 236.981 341.18 236.971 355.78C236.971 356.94 237.131 358.15 236.871 359.25C236.301 361.69 234.761 363.46 232.231 363.8C229.881 364.11 228.781 362.29 227.771 360.49C226.821 358.79 226.981 356.96 226.981 355.15C226.981 341.71 226.981 328.27 226.981 314.84C230.121 313.2 233.661 312.96 236.991 311.99V311.98Z" fill="#F3F3F3"/>
<path id="Vector_2" d="M147.06 314.06C147.05 330.5 147.09 346.93 146.94 363.37C146.92 365.2 148.66 368.86 144.67 368.47C141.58 368.17 137.76 368.13 137.89 362.62C138.28 346.03 138.08 329.42 138.1 312.82C141.08 313.23 144.07 313.65 147.05 314.06H147.06Z" fill="#F3F3F3"/>
<path id="Vector_3" d="M216.019 314.96C215.999 315.3 215.979 315.65 215.959 315.99C211.399 317.6 207.959 318.04 201.859 317.53C207.419 316.52 211.719 315.74 216.019 314.96Z" fill="#F3F3F3"/>
<path id="Vector_4" d="M158.04 315.99C158.03 315.64 158.02 315.29 158 314.94C160.05 315.36 162.1 315.77 164.14 316.19C162 316.91 159.91 317.63 158.03 315.99H158.04Z" fill="#F3F3F3"/>
<path id="Vector_5" d="M165.869 317.59C168.649 316.74 170.219 316.81 171.819 317.59H165.869Z" fill="#F3F3F3"/>
<path id="Vector_6" d="M107.82 74.97C107.84 75.54 107.83 76.08 107.05 76.09C106.83 75.39 107.3 75.17 107.82 74.97Z" fill="#65C8FE"/>
<path id="Union" fill-rule="evenodd" clip-rule="evenodd" d="M257.287 113.574C258.368 119.648 259.449 125.718 261.841 131.47L261.871 131.49C261.981 131.76 261.951 132.15 261.851 132.44C258.867 140.984 258.846 149.792 258.825 158.605C258.812 164.264 258.798 169.925 258.001 175.52C256.041 189.31 250.151 199.74 236.411 204.55C230.621 206.58 227.581 205.8 226.191 200.49C222.431 186.14 211.781 182.67 198.961 182.09C199.093 181.918 199.225 181.747 199.358 181.575C199.828 180.966 200.301 180.354 200.761 179.73C200.937 179.493 201.13 179.255 201.326 179.014C202.319 177.79 203.373 176.491 202.521 174.92C202.303 174.513 202.018 174.251 201.69 174.089C202.01 174.252 202.287 174.511 202.501 174.91C203.353 176.481 202.299 177.78 201.306 179.004C201.11 179.245 200.917 179.483 200.741 179.72C200.281 180.344 199.808 180.956 199.338 181.565L199.334 181.57C199.203 181.74 199.072 181.91 198.941 182.08C191.297 184.019 183.662 183.75 176.038 182.034C176.039 182.036 176.04 182.038 176.041 182.04C174.944 182.167 173.837 182.252 172.731 182.337C170.357 182.518 167.985 182.7 165.721 183.3C158.161 185.31 152.261 189.15 149.671 197.35C146.801 206.42 143.701 207.11 134.841 203.16C121.161 197.05 117.551 185.14 116.261 171.9C115.081 159.83 114.611 147.62 114.361 135.59C114.081 121.59 115.801 107.2 121.281 93.79C125.721 82.9 133.571 74.52 141.481 66.18C142.751 64.84 143.971 64.27 145.711 65.81C154.821 73.86 165.941 77.07 177.661 78.43C195.481 80.5 212.931 79.97 228.541 69.38C229.751 68.55 230.611 68.03 231.591 69.82C234.623 75.3649 239.351 79.4843 244.016 83.5489L244.281 83.78C249.241 88.09 252.181 93.35 254.151 99.56C255.607 104.137 256.447 108.857 257.287 113.574ZM204.011 193.71C203.004 193.691 201.996 193.694 200.988 193.696C196.688 193.708 192.392 193.719 188.261 192.05C187.581 191.78 186.581 191.89 185.871 192.18C181.901 193.77 177.761 193.82 172.101 193.66C166.671 193.09 160.771 194.4 157.221 201.33C151.851 211.8 157.611 226.77 168.801 230.68C172.101 231.83 174.951 231.66 177.891 228.89C183.521 223.58 190.871 223.42 196.321 228.6C200.511 232.58 204.411 231.86 208.421 229.22C213.551 225.85 217.261 221.14 219.181 215.27C222.601 204.82 214.901 193.91 204.021 193.71H204.011Z" fill="#FDD9B2"/>
<g id="mouth">
<path id="Vector_7" d="M170.651 217.614C165.451 214.224 163.321 208.924 162.161 203.234C161.311 199.084 163.941 198.534 167.251 199.284C167.871 203.634 170.491 205.454 174.761 205.424C183.501 205.364 192.251 205.364 200.991 205.424C205.291 205.454 207.841 203.544 208.531 199.264C211.131 198.624 212.551 199.734 212.201 202.304C211.351 208.544 209.301 214.174 203.361 217.504C196.831 209.894 187.941 216.314 180.401 213.784C177.261 212.734 173.261 214.644 170.641 217.614H170.651Z" fill="#55483D"/>
<path id="Vector_8" d="M170.65 217.4C173.27 214.43 177.27 212.52 180.41 213.57C187.95 216.1 196.83 209.68 203.37 217.29C196.12 226.3 179.69 226.35 170.66 217.4H170.65Z" fill="#FA516D"/>
<path id="Vector_9" d="M208.532 199.05C207.842 203.34 205.292 205.24 200.992 205.21C192.252 205.15 183.502 205.15 174.762 205.21C170.492 205.24 167.872 203.42 167.252 199.07C181.012 199.07 194.772 199.06 208.532 199.05V199.05Z" fill="#FEFEFE"/>
</g>
<rect id="toplip" x="158" y="189" width="58" height="20" rx="9" fill="#FDD9B2"/>
<path id="bottomlip" fill-rule="evenodd" clip-rule="evenodd" d="M158.055 200C158.019 200.328 158 200.662 158 201V200H158.055ZM215.945 200C215.981 200.328 216 200.662 216 201V200H215.945ZM216 203C216 207.971 211.971 212 207 212H167C162.029 212 158 207.971 158 203V230H216V203Z" fill="#FDD9B2"/>
<g id="Group 2">
<path id="Vector_10" d="M110.63 131.75C110.99 141.47 111.48 151.2 111.67 160.92C111.8 167.7 111.5 174.5 111.39 181.29C103.7 179.31 99.2096 173.79 99.0596 165.88C98.9496 160.05 99.0096 154.22 99.0396 148.4C99.0896 139.81 102.57 134.85 110.63 131.75V131.75Z" fill="#F8D6B1"/>
<path id="Vector_11" d="M263.18 181.31C263.13 164.81 263.07 148.3 263.02 131.8C269.66 132.93 273.78 137.03 274.93 143.41C276.49 152.05 276.45 160.86 274.96 169.51C273.86 175.94 269.69 179.97 263.17 181.32L263.18 181.31Z" fill="#F7D7B3"/>
<path id="Vector_12" d="M269.7 76.75C272.56 92.5 272.65 108.1 266.87 123.31C265.77 126.21 264.31 128.97 263.01 131.79C263.06 148.3 263.12 164.8 263.17 181.3C260.13 210.53 246.89 232.62 218.98 244.45C209.86 246.87 200.78 249.41 191.27 250C178.75 250.78 167.01 247.22 155.2 243.94C131.38 233.86 117.9 215.51 112.62 190.64C111.97 187.57 111.78 184.41 111.37 181.29C111.48 174.5 111.78 167.71 111.65 160.92C111.47 151.19 110.97 141.47 110.61 131.75C103.43 115.11 102.79 97.95 106.59 80.44C106.9 79 107.53 77.58 107.05 76.05L107.03 76.09C107.81 76.08 107.82 75.54 107.8 74.97C110.85 65.61 115.03 57.05 124.14 51.99C125.08 51.47 125.49 50.55 125.68 49.55C129.5 29.85 143.59 20.6 161.14 15.23C172.33 11.8 183.5 13.51 194.59 16.56C203.54 19.02 212.42 22.18 222.01 20.33C225.97 19.57 229.78 18.46 233.4 16.74C240.84 13.2 248.42 11.19 255.33 17.32C262.45 23.63 263.03 32.03 261.28 40.79C260.58 44.27 259.11 47.44 256.87 50.19C255.77 51.54 255.33 52.47 256.81 53.93C263.26 60.3 266.6 68.46 269.69 76.75H269.7ZM176.02 182.03C183.66 183.75 191.3 184.02 198.94 182.08C211.76 182.66 222.41 186.13 226.17 200.48C227.56 205.79 230.6 206.57 236.39 204.54C250.13 199.73 256.02 189.3 257.98 175.51C260.02 161.2 256.93 146.46 261.83 132.43C261.93 132.14 261.96 131.75 261.85 131.48C257.6 121.26 257.49 110.04 254.16 99.57C252.19 93.36 249.25 88.1 244.29 83.79C239.54 79.65 234.69 75.48 231.6 69.83C230.62 68.04 229.76 68.56 228.55 69.39C212.94 79.98 195.49 80.51 177.67 78.44C165.95 77.08 154.83 73.87 145.72 65.82C143.98 64.28 142.76 64.85 141.49 66.19C133.58 74.53 125.73 82.91 121.29 93.8C115.81 107.21 114.09 121.6 114.37 135.6C114.62 147.63 115.09 159.84 116.27 171.91C117.56 185.15 121.17 197.06 134.85 203.17C143.71 207.12 146.81 206.43 149.68 197.36C152.27 189.16 158.17 185.32 165.73 183.31C169.05 182.43 172.6 182.45 176.05 182.05L176.02 182.03ZM172.09 193.65C166.66 193.08 160.76 194.39 157.21 201.32C151.84 211.79 157.6 226.76 168.79 230.67C172.09 231.82 174.94 231.65 177.88 228.88C183.51 223.57 190.86 223.41 196.31 228.59C200.5 232.57 204.4 231.85 208.41 229.21C213.54 225.84 217.25 221.13 219.17 215.26C222.59 204.81 214.89 193.9 204.01 193.7C198.71 193.6 193.36 194.1 188.26 192.04C187.58 191.77 186.58 191.88 185.87 192.17C181.9 193.76 177.76 193.81 172.1 193.65H172.09Z" fill="#5C352A"/>
</g>
<path id="Vector_13" d="M176.021 182.03C174.831 179.41 170.281 177.79 171.921 174.81C173.091 172.68 177.151 174.11 179.911 174.05C185.901 173.92 191.901 173.95 197.901 174.05C199.471 174.07 201.581 173.19 202.501 174.91C203.521 176.79 201.811 178.28 200.741 179.72C200.151 180.52 199.541 181.3 198.941 182.08C191.291 184.02 183.651 183.75 176.021 182.03V182.03Z" fill="#D4B695"/>
<path id="right-eye" d="M229.631 147.01C229.521 151.55 225.711 155.13 221.221 154.91C216.941 154.69 213.511 151.01 213.601 146.71C213.691 142.17 217.391 138.75 222.031 138.93C226.451 139.11 229.731 142.6 229.631 147.01V147.01Z" fill="#6D5E4D"/>
<path id="left-eye" d="M163.232 146.82C163.212 151.04 159.482 154.81 155.252 154.9C150.822 155 146.902 151.06 147.002 146.61C147.102 142.3 150.772 138.86 155.202 138.92C159.632 138.98 163.252 142.54 163.222 146.82H163.232Z" fill="#6D5E4D"/>
<g id="Group 1">
<path id="Vector_14" d="M154.979 247.07C144.039 250.07 133.419 253.64 124.219 260.7C119.459 264.35 116.389 269.21 112.929 273.85C107.489 275.62 102.529 278.31 97.9294 281.7C83.5194 290.21 73.2494 302.67 64.6194 317.23C55.2594 306.57 48.1094 295.04 42.2294 282.72C29.9294 256.94 24.8694 229.61 27.3294 201.27C31.1494 157.19 50.0794 120.53 83.6894 91.56C89.6294 86.44 95.9594 81.89 102.609 77.75C103.969 76.9 105.169 75.49 107.079 76.05C107.569 77.58 106.939 79 106.619 80.44C102.809 97.95 103.459 115.1 110.639 131.75C102.569 134.85 99.0994 139.81 99.0494 148.4C99.0194 154.23 98.9594 160.06 99.0694 165.88C99.2194 173.79 103.699 179.31 111.399 181.29C111.809 184.41 111.999 187.57 112.649 190.64C117.919 215.51 131.399 233.87 155.219 243.94C155.139 244.98 155.069 246.02 154.989 247.06L154.979 247.07Z" fill="#65C8FE"/>
<path id="Vector_15" d="M261.98 273.94C258.71 270.91 257.04 266.67 253.69 263.6C243.86 254.59 231.84 250.32 219.34 246.94C219.22 246.11 219.11 245.28 218.99 244.45C246.9 232.63 260.13 210.53 263.18 181.31C269.7 179.96 273.87 175.93 274.97 169.5C276.45 160.85 276.5 152.04 274.94 143.4C273.79 137.02 269.67 132.92 263.03 131.79C264.32 128.97 265.79 126.21 266.89 123.31C272.67 108.1 272.58 92.5 269.72 76.75C283.1 83.88 294.49 93.59 304.7 104.6C326.03 127.62 339.88 154.59 345.2 185.6C353.39 233.35 342.06 276.29 312.52 314.56C310.67 316.96 309.69 317.1 308.04 314.28C300.27 301.01 290.26 289.82 276.97 281.8C272.42 278.35 267.39 275.81 262 273.94H261.98Z" fill="#65C8FE"/>
<path id="Vector_16" d="M147.06 314.06C144.08 313.65 141.09 313.23 138.11 312.82C132.53 310.42 126.88 308.15 121.38 305.58C110.62 300.56 101.57 293.77 97.9297 281.7C102.53 278.31 107.49 275.62 112.93 273.85C111.38 281.9 113.91 288.7 119.23 294.69C129.59 306.36 143.3 311.6 158 314.94C158.01 315.29 158.02 315.64 158.04 315.99C154.23 316.2 150.73 314.64 147.06 314.06V314.06Z" fill="#D6D6D7"/>
<path id="Vector_17" d="M236.989 311.98C233.659 312.96 230.119 313.19 226.979 314.83C223.309 315.21 219.629 315.6 215.959 315.99C215.979 315.65 215.999 315.3 216.019 314.96C228.449 312.68 239.899 307.92 249.889 300.24C258.359 293.73 263.339 285.18 261.979 273.94C267.359 275.81 272.389 278.35 276.949 281.8C271.229 297.29 258.379 304.28 243.989 309.44C241.659 310.28 239.329 311.13 236.999 311.98H236.989Z" fill="#D6D6D7"/>
<path id="Vector_18" d="M218.98 252.95C218.61 261.87 220.5 270.96 217.86 279.69C213.33 294.65 200.83 302.61 183.74 301.96C171.35 301.49 159.4 291.05 156.12 277.65C154.12 269.47 155.17 261.15 155.26 252.87C156.67 253.3 158.11 253.63 159.48 254.18C169.87 258.32 180.67 260.6 191.81 259.68C201.15 258.91 210.28 256.6 218.99 252.95H218.98Z" fill="#FEDAB4"/>
<path id="Vector_19" d="M218.979 252.95C210.269 256.6 201.139 258.91 191.799 259.68C180.669 260.6 169.859 258.32 159.469 254.18C158.109 253.64 156.659 253.3 155.249 252.87C155.159 250.94 155.059 249 154.969 247.07C155.049 246.03 155.119 244.99 155.199 243.95C167.009 247.23 178.749 250.79 191.269 250.01C200.779 249.41 209.859 246.88 218.979 244.46C219.099 245.29 219.209 246.12 219.329 246.95C219.209 248.95 219.089 250.96 218.979 252.96V252.95Z" fill="#E4C3A0"/>
</g>
<path id="left-eyelid" d="M166 117H144V137H166V117Z" fill="#FDD9B2"/>
<path id="right-eyelid" d="M234 117.223H212V137.223H234V117.223Z" fill="#FDD9B2"/>
<path id="right-eyebrow" d="M216.591 115.223C226.891 115.393 235.251 117.573 242.251 123.673C243.361 124.643 244.391 125.783 245.181 127.033C245.931 128.233 245.851 129.593 244.601 130.603C243.301 131.643 242.061 131.273 241.051 130.203C232.581 121.203 222.051 119.473 210.441 121.353C208.481 121.673 206.091 122.063 205.741 119.223C205.441 116.803 207.631 116.293 209.411 116.013C212.191 115.563 215.011 115.393 216.601 115.233L216.591 115.223Z" fill="#6D5E4D"/>
<path id="left-eyebrow" d="M163.31 121.183C156.1 119.403 148.69 120.593 141.48 123.533C138.53 124.733 135.91 126.473 133.8 128.883C132.43 130.463 131.03 132.193 128.94 130.123C126.94 128.143 128.55 126.413 129.91 124.993C135.44 119.223 142.5 116.533 150.21 115.463C154.97 114.803 159.8 114.773 164.55 115.873C166.34 116.283 168.45 116.683 168.11 119.133C167.77 121.603 165.7 121.443 163.31 121.173V121.183Z" fill="#6D5E4D"/>
<g id="hover-me">
<path id="arrow" d="M288.161 62.8956C289.068 63.352 289.763 62.9696 290.471 62.9573C290.956 62.945 291.478 62.9573 291.913 63.1176C292.844 63.463 292.993 64.7949 292.186 65.3252C291.776 65.5842 291.304 65.7939 290.832 65.9049C287.863 66.5955 284.881 67.2738 281.887 67.9151C281.34 68.0385 280.732 68.0138 280.16 67.9275C279.29 67.8042 278.781 66.8545 279.092 66.0652C279.179 65.8432 279.303 65.6212 279.427 65.4116C280.669 63.3766 281.887 61.3294 283.167 59.3191C283.465 58.8504 283.875 58.4064 284.334 58.0735C285.216 57.4321 286.123 57.8515 286.31 58.9491C286.359 59.2574 286.322 59.5904 286.322 60.1207C286.819 59.9357 287.167 59.8371 287.502 59.6644C289.639 58.5791 291.764 57.4938 293.888 56.3962C298.621 53.9666 303.74 53.1403 308.995 53.0046C310.635 52.9676 312.324 53.1526 313.902 53.5719C316.374 54.2256 318.797 55.0765 321.17 56.0015C323.841 57.0498 325.605 59.0847 326.735 61.6747C326.922 62.1063 327.046 62.6366 326.984 63.093C326.934 63.4259 326.599 63.8699 326.288 63.9809C325.978 64.0919 325.431 63.9439 325.195 63.6973C324.797 63.315 324.524 62.7723 324.238 62.279C323.058 60.281 321.393 58.8998 319.182 58.1598C316.908 57.4075 314.697 56.4578 312.299 56.1495C307.007 55.4835 301.901 56.2728 297.019 58.2954C294.36 59.3931 291.838 60.836 289.254 62.131C288.894 62.316 288.596 62.5873 288.161 62.8956Z" fill="#65C8FE"/>
<path id="text" d="M307.216 79.1541C306.477 79.1541 305.84 78.9867 305.307 78.652C304.777 78.3139 304.369 77.8482 304.084 77.255C303.799 76.6617 303.656 75.9822 303.656 75.2166C303.656 74.4411 303.802 73.7566 304.094 73.1634C304.385 72.5668 304.796 72.1011 305.327 71.7663C305.857 71.4316 306.482 71.2642 307.201 71.2642C307.781 71.2642 308.298 71.3719 308.752 71.5874C309.206 71.7995 309.572 72.0978 309.851 72.4822C310.133 72.8667 310.3 73.3158 310.353 73.8295H308.906C308.827 73.4716 308.644 73.1634 308.359 72.9048C308.078 72.6463 307.7 72.517 307.226 72.517C306.812 72.517 306.449 72.6264 306.137 72.8452C305.829 73.0606 305.589 73.3688 305.416 73.7699C305.244 74.1676 305.158 74.6383 305.158 75.1818C305.158 75.7386 305.242 76.2192 305.411 76.6236C305.58 77.0279 305.819 77.3411 306.127 77.5632C306.439 77.7853 306.805 77.8963 307.226 77.8963C307.508 77.8963 307.763 77.8449 307.991 77.7422C308.223 77.6361 308.417 77.4853 308.573 77.2898C308.732 77.0942 308.843 76.8589 308.906 76.5838H310.353C310.3 77.0777 310.139 77.5185 309.871 77.9062C309.602 78.294 309.243 78.599 308.792 78.821C308.344 79.0431 307.819 79.1541 307.216 79.1541ZM313.429 68.8182V79H311.943V68.8182H313.429ZM315.429 79V71.3636H316.915V79H315.429ZM316.18 70.1854C315.921 70.1854 315.699 70.0992 315.513 69.9268C315.331 69.7512 315.24 69.5424 315.24 69.3004C315.24 69.0552 315.331 68.8464 315.513 68.674C315.699 68.4983 315.921 68.4105 316.18 68.4105C316.438 68.4105 316.659 68.4983 316.841 68.674C317.027 68.8464 317.119 69.0552 317.119 69.3004C317.119 69.5424 317.027 69.7512 316.841 69.9268C316.659 70.0992 316.438 70.1854 316.18 70.1854ZM322.132 79.1541C321.393 79.1541 320.756 78.9867 320.223 78.652C319.693 78.3139 319.285 77.8482 319 77.255C318.715 76.6617 318.572 75.9822 318.572 75.2166C318.572 74.4411 318.718 73.7566 319.01 73.1634C319.301 72.5668 319.712 72.1011 320.243 71.7663C320.773 71.4316 321.398 71.2642 322.117 71.2642C322.697 71.2642 323.214 71.3719 323.668 71.5874C324.122 71.7995 324.488 72.0978 324.767 72.4822C325.049 72.8667 325.216 73.3158 325.269 73.8295H323.822C323.743 73.4716 323.56 73.1634 323.275 72.9048C322.994 72.6463 322.616 72.517 322.142 72.517C321.728 72.517 321.365 72.6264 321.053 72.8452C320.745 73.0606 320.505 73.3688 320.332 73.7699C320.16 74.1676 320.074 74.6383 320.074 75.1818C320.074 75.7386 320.158 76.2192 320.327 76.6236C320.496 77.0279 320.735 77.3411 321.043 77.5632C321.355 77.7853 321.721 77.8963 322.142 77.8963C322.424 77.8963 322.679 77.8449 322.907 77.7422C323.14 77.6361 323.333 77.4853 323.489 77.2898C323.648 77.0942 323.759 76.8589 323.822 76.5838H325.269C325.216 77.0777 325.055 77.5185 324.787 77.9062C324.518 78.294 324.159 78.599 323.708 78.821C323.26 79.0431 322.735 79.1541 322.132 79.1541ZM328.226 76.4098L328.216 74.5952H328.474L331.517 71.3636H333.297L329.827 75.0426H329.593L328.226 76.4098ZM326.859 79V68.8182H328.345V79H326.859ZM331.681 79L328.947 75.3707L329.971 74.3317L333.506 79H331.681ZM338.357 79V71.3636H339.784V72.6065H339.878C340.037 72.1856 340.297 71.8575 340.659 71.6222C341.02 71.3835 341.452 71.2642 341.956 71.2642C342.467 71.2642 342.894 71.3835 343.239 71.6222C343.587 71.8608 343.844 72.1889 344.009 72.6065H344.089C344.271 72.1989 344.561 71.8741 344.959 71.6321C345.357 71.3868 345.831 71.2642 346.381 71.2642C347.074 71.2642 347.639 71.4813 348.076 71.9155C348.517 72.3497 348.737 73.0043 348.737 73.8793V79H347.251V74.0185C347.251 73.5014 347.11 73.1269 346.828 72.8949C346.547 72.6629 346.21 72.5469 345.819 72.5469C345.335 72.5469 344.959 72.696 344.691 72.9943C344.422 73.2893 344.288 73.6688 344.288 74.1328V79H342.806V73.924C342.806 73.5097 342.677 73.1766 342.419 72.9247C342.16 72.6728 341.824 72.5469 341.409 72.5469C341.128 72.5469 340.867 72.6214 340.629 72.7706C340.393 72.9164 340.203 73.1203 340.057 73.3821C339.914 73.6439 339.843 73.9472 339.843 74.2919V79H338.357ZM354.021 79.1541C353.269 79.1541 352.621 78.9934 352.077 78.6719C351.537 78.3471 351.119 77.8913 350.824 77.3047C350.533 76.7147 350.387 76.0237 350.387 75.2315C350.387 74.4493 350.533 73.7599 350.824 73.1634C351.119 72.5668 351.53 72.1011 352.057 71.7663C352.587 71.4316 353.207 71.2642 353.917 71.2642C354.347 71.2642 354.765 71.3355 355.169 71.478C355.574 71.6205 355.937 71.8442 356.258 72.1491C356.58 72.4541 356.833 72.8501 357.019 73.3374C357.204 73.8213 357.297 74.4096 357.297 75.1023V75.6293H351.227V74.5156H355.841C355.841 74.1245 355.761 73.7782 355.602 73.4766C355.443 73.1716 355.219 72.9313 354.931 72.7557C354.646 72.58 354.311 72.4922 353.926 72.4922C353.509 72.4922 353.144 72.5949 352.833 72.8004C352.525 73.0026 352.286 73.2678 352.117 73.5959C351.951 73.9207 351.868 74.2737 351.868 74.6548V75.5249C351.868 76.0353 351.958 76.4695 352.137 76.8274C352.319 77.1854 352.573 77.4588 352.897 77.6477C353.222 77.8333 353.602 77.9261 354.036 77.9261C354.318 77.9261 354.574 77.8864 354.806 77.8068C355.038 77.724 355.239 77.6013 355.408 77.4389C355.577 77.2765 355.706 77.076 355.796 76.8374L357.203 77.0909C357.09 77.5052 356.888 77.8681 356.596 78.1797C356.308 78.4879 355.945 78.7282 355.507 78.9006C355.073 79.0696 354.578 79.1541 354.021 79.1541Z" fill="#65C8FE"/>
</g>
</g>
</svg>
